<?xml version="1.0" encoding="UTF-8"?><svg id="Layer_1" xmlns="http://www.w3.org/2000/svg" viewBox="0 0 196.38 516.86"><defs><style>.cls-1{fill:#231f20;}</style></defs><path class="cls-1" d="M104.34,141.51c12.53-8.62,24.13-18.81,34.44-29.97,10.23-11.07,19.61-23.29,27.1-36.39,7.83-13.7,13.91-30.5,9.23-46.3-4.28-14.43-17.2-25.18-31.85-28-16.02-3.09-31.82,2.58-44.12,12.85-1.36,1.13-2.65,2.33-3.9,3.58-2.77,2.79-2.99,7.86,0,10.61s7.65,2.97,10.61,0c1.2-1.2,2.44-2.36,3.74-3.45,.36-.31,.74-.6,1.1-.91,1.05-.86-1.4,1.03-.23,.17,.66-.48,1.32-.97,1.99-1.43,2.81-1.91,5.79-3.54,8.91-4.87l-1.79,.76c3.61-1.51,7.37-2.58,11.25-3.13l-1.99,.27c3.47-.46,6.96-.5,10.44-.05l-1.99-.27c3.29,.47,6.49,1.35,9.56,2.63l-1.79-.76c1.91,.82,3.76,1.78,5.52,2.9,.41,.26,.82,.53,1.22,.81,.33,.23,1.8,1.34,.71,.5s.24,.22,.51,.45c.41,.36,.82,.72,1.22,1.09,.7,.66,1.38,1.36,2.02,2.09,.36,.41,.7,.83,1.05,1.25,.57,.68-1.02-1.39-.51-.66,.14,.2,.28,.39,.42,.59,1.24,1.76,2.26,3.64,3.1,5.61l-.76-1.79c1.04,2.55,1.75,5.2,2.14,7.93l-.27-1.99c.44,3.4,.39,6.81-.04,10.21l.27-1.99c-.73,5.35-2.34,10.51-4.44,15.47l.76-1.79c-2.54,5.93-5.75,11.52-9.25,16.93-1.69,2.62-3.44,5.19-5.24,7.73-.9,1.27-1.82,2.53-2.75,3.77-.42,.57-.85,1.13-1.28,1.69-.3,.39-1.3,1.57,.14-.17-.31,.38-.61,.78-.92,1.17-7.85,9.95-16.61,19.18-26.15,27.52-2.61,2.28-5.28,4.5-8,6.65-.28,.22-.56,.44-.84,.66-.62,.48-.45,.35,.51-.39-.22,.17-.45,.35-.67,.52-.67,.52-1.35,1.03-2.03,1.53-1.55,1.16-3.11,2.31-4.71,3.41s-2.91,2.53-3.45,4.48c-.49,1.8-.27,4.19,.76,5.78,2.07,3.21,6.8,5.07,10.26,2.69h0Z"/><path class="cls-1" d="M104.51,140.69c4.84-1.15,9.72-2.15,14.65-2.82l-1.99,.27c6.49-.85,13.08-1.15,19.59-.3l-1.99-.27c3.73,.52,7.39,1.42,10.88,2.86l-1.79-.76c1.76,.75,3.46,1.62,5.08,2.64,.44,.28,.88,.57,1.31,.87,.19,.14,.38,.27,.57,.41,.81,.58-.6-.44-.68-.53,.59,.74,1.6,1.33,2.29,2s1.4,1.42,2.05,2.18c.16,.19,.32,.39,.48,.58,.59,.68-1-1.36-.48-.63,.33,.46,.66,.91,.98,1.38,1.19,1.77,2.18,3.66,3.02,5.61l-.76-1.79c1.37,3.28,2.25,6.72,2.74,10.24l-.27-1.99c.54,4.21,.5,8.45-.06,12.66l.27-1.99c-.74,5.24-2.31,10.32-4.35,15.2l.76-1.79c-4.84,11.41-12.1,21.68-19.35,31.66-1.79,2.47-3.61,4.91-5.46,7.33-.41,.54-.86,1.07-1.25,1.63,1.34-1.91-.16,.21-.51,.65-.98,1.26-1.98,2.52-2.98,3.76-3.81,4.76-7.73,9.42-11.75,14-16.09,18.3-33.85,35.11-53,50.17-.6,.47-1.19,.93-1.79,1.4-1.29,1.01,1.38-1.06,.08-.06-.36,.28-.72,.55-1.08,.83-1.32,1.01-2.65,2.01-3.99,3.01-2.79,2.08-5.62,4.12-8.47,6.13-5.57,3.92-11.25,7.7-17.02,11.33-3.32,2.09-4.94,6.78-2.69,10.26s6.71,4.93,10.26,2.69c18.35-11.55,35.78-24.6,52.07-38.91,15.93-14,30.74-29.27,44.24-45.62,7.1-8.6,13.87-17.47,20.27-26.61s12.44-18.64,16.63-29.1c2.07-5.16,3.39-10.45,4.11-15.96,.67-5.05,.47-10-.26-15.03-1.39-9.58-6.05-19.13-13.57-25.37s-17.07-9.47-27.04-10.35c-9.21-.81-18.59,.46-27.61,2.3-2.05,.42-4.09,.89-6.12,1.37-3.82,.91-6.46,5.47-5.24,9.23,1.29,3.98,5.13,6.21,9.23,5.24h0Z"/><path class="cls-1" d="M60.09,396.25c7.58-5.02,14.79-10.57,21.95-16.15,7.12-5.55,14.22-11.13,21.08-17.01,13.21-11.33,25.68-23.54,37.3-36.5,11.98-13.36,23.1-27.54,33.23-42.36,9.81-14.36,18.82-30.53,18.73-48.42-.05-8.4-2.04-17.07-6.46-24.28-4.89-7.98-12.37-13.59-21.09-16.78-1.84-.67-3.72-1.19-5.63-1.6-3.82-.83-8.29,1.14-9.23,5.24-.86,3.78,1.14,8.34,5.24,9.23,2.5,.54,4.94,1.28,7.3,2.26l-1.79-.76c1.96,.84,3.85,1.83,5.63,3.02,.42,.28,.96,.57,1.32,.93l-.87-.68c.21,.17,.42,.34,.63,.51,.85,.7,1.66,1.44,2.43,2.23,.71,.72,1.31,1.54,2.01,2.27-1.47-1.52-.63-.83-.26-.32,.29,.41,.58,.82,.85,1.24,1.1,1.68,2.02,3.46,2.81,5.3l-.76-1.79c1.37,3.28,2.26,6.72,2.74,10.24l-.27-1.99c.52,4.08,.5,8.19-.02,12.27l.27-1.99c-.74,5.49-2.37,10.8-4.52,15.89l.76-1.79c-4.63,10.82-11.45,20.61-18.3,30.11-1.7,2.36-3.43,4.7-5.18,7.03-.4,.54-.81,1.07-1.22,1.61-.29,.38-1.94,2.51-.46,.61-.92,1.18-1.83,2.36-2.76,3.53-3.66,4.62-7.42,9.17-11.29,13.62-15.6,18-32.82,34.64-51.4,49.56-2.57,2.06-5.17,4.09-7.76,6.13-1.28,1-2.55,2-3.83,3-.65,.51-1.31,1.01-1.96,1.52,1.87-1.45-.37,.29-.82,.63-5.21,3.99-10.49,7.9-15.96,11.52-3.27,2.16-4.97,6.73-2.69,10.26,2.1,3.26,6.76,5.01,10.26,2.69h0Z"/><path class="cls-1" d="M161.99,292.29c.26,.1,.51,.21,.77,.32l-1.79-.76c1.91,.83,3.76,1.81,5.49,2.98,.46,.31,.89,.71,1.37,.98-.96-.75-1.13-.88-.52-.39,.22,.18,.44,.36,.65,.55,.75,.65,1.47,1.33,2.16,2.04,.61,.64,1.16,1.33,1.75,1.99-1.61-1.83-.39-.5-.04-.01,.29,.41,.57,.82,.84,1.25,1.01,1.59,1.87,3.26,2.61,4.98l-.76-1.79c1.37,3.28,2.26,6.72,2.74,10.24l-.27-1.99c.54,4.21,.49,8.45-.07,12.66l.27-1.99c-.76,5.36-2.37,10.54-4.47,15.51l.76-1.79c-4.65,10.85-11.5,20.64-18.37,30.17-1.77,2.46-3.57,4.9-5.4,7.32-.46,.61-.93,1.23-1.4,1.84-.19,.24-.38,.49-.56,.73-.77,1,.23-.31,.33-.42-1.06,1.22-1.99,2.56-3,3.82-3.79,4.77-7.69,9.45-11.69,14.03-15.84,18.15-33.31,34.88-52.17,49.87-.69,.55-1.38,1.1-2.08,1.64-.39,.31-2.75,2.13-.95,.75-1.4,1.07-2.8,2.14-4.21,3.2-.64,.48-1.27,.98-1.9,1.46,2.27-1.73,.9-.7,.36-.3-.76,.57-1.53,1.13-2.29,1.7-1.41,1.03-2.82,2.05-4.24,3.06-5.69,4.05-11.49,7.94-17.38,11.68l3.79-1.02h-.02c-3.92,0-7.68,3.45-7.5,7.5s3.3,7.5,7.5,7.5c3.06,0,5.75-2.25,8.21-3.86,1.86-1.21,3.71-2.45,5.55-3.69,3.74-2.53,7.44-5.13,11.09-7.8,.83-.61,1.66-1.22,2.49-1.83,.44-.33,.89-.66,1.33-1,.66-.5,2.68-2.07,1.15-.88-1.21,.94-.25,.2,.02,0,2.18-1.64,4.33-3.3,6.48-4.97,3.61-2.81,7.17-5.68,10.68-8.61,13.24-11.07,25.76-23.01,37.46-35.7,12.18-13.21,23.47-27.25,33.82-41.95,4.86-6.91,9.64-13.94,13.46-21.49,4.11-8.12,7.02-16.58,8.06-25.63,.87-7.58,.07-15.75-2.72-22.88-3.32-8.47-8.84-15.61-16.72-20.33-2.11-1.27-4.36-2.23-6.64-3.15-1.68-.68-4.29-.12-5.78,.76s-3.04,2.69-3.45,4.48c-.44,1.92-.34,4.07,.76,5.78s2.57,2.67,4.48,3.45h0Z"/><path class="cls-1" d="M73.04,516.38c12.91-5.17,25.3-11.46,37.36-18.37,13.27-7.6,26.1-15.96,38.4-25.06,6.41-4.74,12.76-9.62,18.85-14.78,5.37-4.55,10.52-9.43,14.89-14.96,4.89-6.19,8.91-12.8,11.39-20.34s3.07-15.53,1.81-23.35-5.63-15.89-11.64-21.51c-6.23-5.83-13.98-9.59-22.07-12.1-3.75-1.16-8.35,1.38-9.23,5.24-.93,4.07,1.23,7.98,5.24,9.23,2.06,.64,4.09,1.36,6.08,2.19l-1.79-.76c2.11,.9,4.16,1.91,6.13,3.08,.96,.58,1.91,1.19,2.82,1.84,.25,.18,.5,.37,.75,.55,.68,.49-1.56-1.26-.49-.37,.43,.36,.86,.71,1.27,1.08,.83,.74,1.63,1.51,2.38,2.33,.38,.41,.75,.83,1.1,1.26,.09,.1,.35,.55,.47,.58-.22-.05-1.18-1.58-.38-.48,1.42,1.95,2.6,4.05,3.55,6.26l-.76-1.79c1.09,2.62,1.81,5.35,2.21,8.16l-.27-1.99c.46,3.51,.41,7.04-.05,10.55l.27-1.99c-.59,4.1-1.72,8.07-3.33,11.88l.76-1.79c-1.71,3.96-3.92,7.68-6.47,11.16-.17,.23-.34,.45-.5,.67-.72,.98,.35-.44,.41-.52-.29,.4-.61,.77-.92,1.15-.75,.93-1.53,1.83-2.32,2.72-1.4,1.58-2.87,3.1-4.37,4.58-3.18,3.12-6.54,6.05-9.99,8.87-1.75,1.44-3.53,2.85-5.31,4.26-.42,.33-.85,.67-1.28,1-.24,.19-.49,.38-.73,.57-.22,.17-1.06,.82-.16,.12s-.44,.34-.71,.54c-.55,.42-1.11,.84-1.66,1.26-15.34,11.61-31.55,22.08-48.42,31.33-8.21,4.5-16.58,8.73-25.21,12.38l1.79-.76c-1.28,.54-2.57,1.07-3.87,1.59-1.88,.75-3.42,1.63-4.48,3.45-.94,1.61-1.34,3.98-.76,5.78s1.71,3.57,3.45,4.48,3.95,1.49,5.78,.76h0Z"/><path class="cls-1" d="M93.55,155.03c-.08,.97-.18,1.94-.31,2.9l.27-1.99c-.75,5.39-2.27,10.61-4.36,15.62l.76-1.79c-2.55,6.02-5.85,11.68-9.63,17-.5,.7-1,1.4-1.51,2.09-.36,.48-1.91,2.38-.39,.53-1.11,1.35-2.18,2.75-3.31,4.09-2.26,2.69-4.6,5.3-7,7.86-9.52,10.17-19.84,19.58-29.08,30.01-9.55,10.77-18.24,22.37-25.79,34.63s-15.67,27.26-12.44,42.73c1.57,7.5,6.44,13.95,12.5,18.43s14.48,6.24,21.57,3.47c1.88-.73,3.43-1.65,4.48-3.45,.94-1.61,1.34-3.98,.76-5.78s-1.71-3.57-3.45-4.48-3.93-1.48-5.78-.76c-1.09,.43-2.21,.73-3.37,.91l1.99-.27c-1.35,.17-2.68,.17-4.03,0l1.99,.27c-1.46-.22-2.85-.62-4.21-1.19l1.79,.76c-1.27-.55-2.48-1.22-3.61-2.02-.47-.33-1.38-1.19,.39,.33-.27-.23-.55-.45-.81-.68-.54-.47-1.05-.96-1.54-1.47-.4-.42-1.2-1.06-1.42-1.61l.73,.95c-.14-.19-.29-.38-.42-.58-.21-.29-.41-.59-.61-.89-.78-1.19-1.44-2.45-2.01-3.75l.76,1.79c-.77-1.85-1.26-3.75-1.55-5.74l.27,1.99c-.34-2.64-.29-5.28,.06-7.91l-.27,1.99c.56-3.88,1.74-7.6,3.25-11.21l-.76,1.79c4.19-9.85,10.26-19.04,16.39-27.78,1.56-2.23,3.16-4.43,4.8-6.6,.36-.48,.73-.97,1.1-1.45,.26-.34,.87-1.1-.34,.44,.19-.24,.37-.48,.56-.72,.84-1.08,1.69-2.14,2.55-3.2,3.44-4.26,7.03-8.39,10.75-12.41,14.74-15.9,31.67-30,43.29-48.55,6.53-10.43,10.97-22.01,12-34.32,.33-3.92-3.68-7.67-7.5-7.5-4.34,.19-7.15,3.3-7.5,7.5h0Z"/><path class="cls-1" d="M19.32,380.98c0-.32,.07-.66,.11-.98l-.27,1.99c.55-3.89,1.72-7.63,3.23-11.25l-.76,1.79c4.35-10.25,10.75-19.78,17.19-28.82,1.61-2.27,3.26-4.51,4.95-6.73,.23-.31,.47-.62,.7-.92,.17-.23,.81-1.07,.12-.16-.78,1.03,.16-.2,.27-.34,.19-.24,.38-.49,.57-.73,.91-1.15,1.82-2.29,2.74-3.43,3.47-4.27,7.07-8.43,10.8-12.46,4.55-4.91,9.32-9.6,14.05-14.33,2.78-2.78,2.98-7.87,0-10.61s-7.64-2.96-10.61,0c-9.57,9.57-18.91,19.23-27.31,29.86-8.38,10.62-16.31,21.73-22.79,33.63-2,3.67-3.78,7.48-5.24,11.4-.64,1.7-1.19,3.42-1.63,5.18-.54,2.18-1.13,4.69-1.13,6.91,0,3.92,3.45,7.68,7.5,7.5s7.5-3.3,7.5-7.5h0Z"/><path class="cls-1" d="M52.29,466.6c-1.3,0-2.54,.11-3.85-.04l1.99,.27c-1.64-.23-3.21-.67-4.75-1.3l1.79,.76c-1.32-.57-2.59-1.25-3.79-2.05-.28-.19-.67-.38-.89-.63,.22,.27,1.47,1.18,.52,.38-.56-.47-1.1-.96-1.61-1.48-.47-.47-.92-.96-1.35-1.48-.37-.44-1-1.51,.27,.38-.2-.3-.42-.59-.63-.89-.8-1.19-1.47-2.46-2.03-3.78l.76,1.79c-.67-1.66-1.08-3.35-1.34-5.11l.27,1.99c-.34-2.64-.29-5.28,.06-7.91l-.27,1.99c.57-3.88,1.75-7.6,3.26-11.21l-.76,1.79c4.04-9.48,9.84-18.36,15.7-26.81,1.47-2.12,2.98-4.22,4.53-6.3,.79-1.07,1.61-2.12,2.41-3.19-1.39,1.84,.03-.03,.35-.44,.47-.6,.94-1.19,1.42-1.79,3.63-4.52,7.42-8.92,11.37-13.17,4.58-4.94,9.37-9.68,14.14-14.44,2.78-2.78,2.98-7.87,0-10.61s-7.64-2.96-10.61,0c-7.39,7.39-14.75,14.78-21.51,22.77-6.44,7.61-12.47,15.59-17.97,23.9s-10.28,16.24-13.89,25.14c-3.99,9.86-5.16,21.44,.04,31.1,2.53,4.7,6.55,8.76,11.1,11.52,2.3,1.4,4.9,2.53,7.52,3.16s5.11,.67,7.74,.67c3.92,0,7.68-3.45,7.5-7.5s-3.3-7.5-7.5-7.5h0Z"/><path class="cls-1" d="M71.52,451.49c-4.65,4.77-8.82,10.19-12.83,15.49-3.76,4.98-6.89,10.2-9.23,15.99-3.7,9.15-4.54,21.52,3.56,28.68,2.39,2.11,5.16,3.71,8.27,4.52,3.82,.99,7.5,.77,11.35,.2,1.73-.26,3.64-2.01,4.48-3.45,.94-1.61,1.34-3.98,.76-5.78s-1.71-3.57-3.45-4.48c-1.9-1-3.67-1.07-5.78-.76l-.41,.06,1.99-.27c-1.7,.22-3.4,.28-5.11,.09l1.99,.27c-1.3-.18-2.54-.49-3.75-1l1.79,.76c-.69-.31-1.33-.68-1.97-1.09-1.06-.68,1.53,1.36,.43,.33-.27-.25-.53-.49-.78-.76s-1.04-1.27-.1-.05,.14,.16-.08-.18c-.36-.56-.66-1.15-.93-1.76l.76,1.79c-.44-1.06-.75-2.16-.91-3.3l.27,1.99c-.24-1.94-.1-3.94,.16-5.87l-.27,1.99c.44-3.02,1.32-5.91,2.5-8.72l-.76,1.79c2.15-4.97,5.16-9.46,8.41-13.77,.6-.8-.24,.29-.39,.5,.21-.29,.44-.56,.65-.84,.43-.54,.86-1.08,1.29-1.62,.94-1.18,1.9-2.34,2.87-3.5,1.88-2.25,3.76-4.57,5.81-6.67,2.74-2.81,3.01-7.84,0-10.61s-7.68-3-10.61,0h0Z"/><path class="cls-1" d="M126.52,420.83h0c-.09,.66-.18,1.33-.27,1.99,0,0,0,0,0,0l-.76,1.79s0,0,0,0l-1.17,1.52s0,0,0,0l-1.52,1.17s0,0,0,0l-1.79,.76s0,0,0,0l-1.99,.27s0,0,0,0c1.03,.04,2-.18,2.89-.65,.93-.3,1.73-.82,2.41-1.55l1.17-1.52c.68-1.17,1.02-2.43,1.02-3.79h0c-.09,.66-.18,1.33-.27,1.99,0,0,0,0,0,0l-.76,1.79s0,0,0,0l-1.17,1.52s0,0,0,0l-1.52,1.17s0,0,0,0l-1.79,.76s0,0,0,0l-1.99,.27s0,0,0,0c1.03,.04,2-.18,2.89-.65,.93-.3,1.73-.82,2.41-1.55l1.17-1.52c.68-1.17,1.02-2.43,1.02-3.79h0c-.09,.66-.18,1.33-.27,1.99,0,0,0,0,0,0l-.76,1.79s0,0,0,0l-1.17,1.52s0,0,0,0l-1.52,1.17s0,0,0,0l-1.79,.76s0,0,0,0l-1.99,.27s0,0,0,0c1.03,.04,2-.18,2.89-.65,.93-.3,1.73-.82,2.41-1.55,.73-.68,1.25-1.48,1.55-2.41,.47-.89,.68-1.86,.65-2.89l-.27-1.99c-.36-1.27-1-2.37-1.93-3.31l-1.52-1.17c-1.17-.68-2.43-1.02-3.79-1.02,0,0-1.99,.27-2,.27-.63,.14-1.24,.43-1.8,.76-1.11,.65-2.05,1.58-2.7,2.7-.76,1.29-.94,2.31-1.03,3.79l7.5-7.5s-1.99,.27-2,.27c-.63,.14-1.24,.43-1.8,.76-1.11,.65-2.05,1.58-2.7,2.7-.76,1.29-.94,2.31-1.03,3.79l7.5-7.5s-1.99,.27-2,.27c-.63,.14-1.24,.43-1.8,.76-1.11,.65-2.05,1.58-2.7,2.7-.76,1.29-.94,2.31-1.03,3.79-.04,1.03,.18,2,.65,2.89,.3,.93,.82,1.73,1.55,2.41,.68,.73,1.48,1.25,2.41,1.55,.89,.47,1.86,.68,2.89,.65l1.99-.27c1.27-.36,2.37-1,3.31-1.93l1.17-1.52c.68-1.17,1.02-2.43,1.02-3.79h0Z"/><path class="cls-1" d="M4.33,380.88c0,4.61,.82,9.06,2.73,13.26,2.14,4.69,6.29,8.04,11.12,9.65,4.3,1.44,9.22,1.25,13.69,.84,4.8-.44,9.58-1.25,14.21-2.61,5.16-1.52,10.19-3.65,14.89-6.25,3.44-1.9,4.85-6.91,2.69-10.26s-6.59-4.73-10.26-2.69c-2.08,1.15-4.21,2.19-6.39,3.11l1.79-.76c-5.22,2.16-10.67,3.65-16.26,4.42l1.99-.27c-3.81,.5-7.76,.83-11.59,.35l1.99,.27c-1.21-.18-2.37-.46-3.51-.9l1.79,.76c-.37-.16-.73-.32-1.09-.51-.08-.05-.9-.63-.99-.61,.17-.04,1.57,1.32,.57,.41-.26-.23-.5-.47-.73-.73-.84-.92,.32,.31,.41,.59-.08-.25-.43-.63-.57-.86-.36-.59-.67-1.22-.94-1.86l.76,1.79c-.68-1.67-1.09-3.41-1.33-5.2l.27,1.99c-.16-1.31-.23-2.63-.23-3.95,0-3.92-3.45-7.68-7.5-7.5s-7.5,3.3-7.5,7.5h0Z"/></svg>