<svg xmlns="http://www.w3.org/2000/svg" width="341.857" height="122.443" viewBox="0 0 341.857 122.443">
  <g id="Untitled-3" transform="translate(-0.008 122.475) rotate(-90)">
    <path id="Path_35" data-name="Path 35" d="M100.1.714a131.408,131.408,0,0,1,21.477,19.823,133.271,133.271,0,0,1,16.9,24.069c4.883,9.062,8.674,20.174,5.756,30.624a26.393,26.393,0,0,1-19.862,18.52c-9.99,2.044-19.843-1.706-27.513-8.5-.848-.747-1.653-1.541-2.432-2.368a5.244,5.244,0,0,1,0-7.018,4.566,4.566,0,0,1,6.616,0c.748.794,1.522,1.561,2.332,2.282.224.205.461.4.686.6.655.569-.873-.681-.143-.112.412.317.823.642,1.241.946a32.141,32.141,0,0,0,5.556,3.221l-1.116-.5a27.282,27.282,0,0,0,7.015,2.07l-1.241-.179a23.585,23.585,0,0,0,6.51.033l-1.241.179a23.361,23.361,0,0,0,5.962-1.74l-1.116.5a23.691,23.691,0,0,0,3.442-1.918c.256-.172.511-.351.761-.536.206-.152,1.122-.886.443-.331s.15-.146.318-.3c.256-.238.511-.476.761-.721.437-.437.861-.9,1.26-1.382.225-.271.437-.549.655-.827.355-.45-.636.919-.318.437.087-.132.175-.258.262-.39A20.5,20.5,0,0,0,135,73.491l-.474,1.184a23.207,23.207,0,0,0,1.335-5.245l-.168,1.316a28.122,28.122,0,0,0-.025-6.753l.168,1.316a42.156,42.156,0,0,0-2.769-10.232l.474,1.184a76.812,76.812,0,0,0-5.768-11.2q-1.581-2.6-3.268-5.113-.842-1.26-1.715-2.494c-.262-.377-.53-.747-.8-1.118-.187-.258-.811-1.038.087.112-.193-.251-.38-.516-.574-.774a133.4,133.4,0,0,0-16.307-18.2q-2.441-2.262-4.989-4.4l-.524-.437q-.58-.476.318.258l-.418-.344c-.418-.344-.842-.681-1.266-1.012-.967-.767-1.939-1.528-2.937-2.255a5.327,5.327,0,0,1-2.151-2.963A5.344,5.344,0,0,1,93.71,2.5C95,.377,97.95-.854,100.108.721h0Z" transform="translate(-35.023 247.557)" fill="#231f20"/>
    <path id="Path_36" data-name="Path 36" d="M75.15,247.91a89.981,89.981,0,0,0,9.136,1.865l-1.241-.179a44.462,44.462,0,0,0,12.216.2l-1.241.179a26.52,26.52,0,0,0,6.785-1.892l-1.116.5a22,22,0,0,0,3.168-1.746c.274-.185.549-.377.817-.575.118-.093.237-.179.355-.271.505-.384-.374.291-.424.351a16.56,16.56,0,0,1,1.428-1.323c.43-.443.873-.939,1.278-1.442.1-.126.2-.258.3-.384.368-.45-.624.9-.3.417.206-.3.412-.6.611-.913a23.272,23.272,0,0,0,1.883-3.711l-.474,1.184a28.6,28.6,0,0,0,1.709-6.773l-.168,1.316a34.2,34.2,0,0,0-.037-8.374l.168,1.316A42.948,42.948,0,0,0,107.29,217.6l.474,1.184c-3.018-7.547-7.546-14.34-12.067-20.941q-1.674-2.451-3.4-4.848c-.256-.357-.536-.708-.779-1.078.836,1.263-.1-.139-.318-.43-.611-.833-1.235-1.667-1.858-2.487q-3.564-4.723-7.327-9.26A255.805,255.805,0,0,0,48.959,146.56l-1.116-.926c-.8-.668.861.7.05.04-.224-.185-.449-.364-.673-.549q-1.235-1-2.488-1.991-2.61-2.064-5.282-4.055-5.21-3.889-10.614-7.494a5.208,5.208,0,0,1-1.677-6.786c1.4-2.3,4.184-3.261,6.4-1.779a257.184,257.184,0,0,1,32.471,25.736A257.509,257.509,0,0,1,93.614,178.93q6.641,8.532,12.64,17.6a98.215,98.215,0,0,1,10.37,19.248,45.237,45.237,0,0,1,2.563,10.556,37.9,37.9,0,0,1-.162,9.941c-.867,6.336-3.773,12.653-8.462,16.78A29.327,29.327,0,0,1,93.7,259.9a57.028,57.028,0,0,1-17.217-1.521c-1.278-.278-2.551-.589-3.816-.906a5.051,5.051,0,0,1-3.268-6.1,4.751,4.751,0,0,1,5.756-3.466h0Z" transform="translate(-9.966 0.903)" fill="#231f20"/>
    <path id="Path_37" data-name="Path 37" d="M55.838,193.685c4.727,3.32,9.223,6.991,13.688,10.682,4.44,3.671,8.868,7.362,13.145,11.251a256.5,256.5,0,0,1,23.26,24.142,269.836,269.836,0,0,1,20.722,28.018c6.117,9.5,11.736,20.193,11.68,32.026a32.766,32.766,0,0,1-4.028,16.059,25.659,25.659,0,0,1-13.152,11.1,25.316,25.316,0,0,1-3.511,1.058,4.742,4.742,0,0,1-5.756-3.466c-.536-2.5.711-5.516,3.268-6.1a25.252,25.252,0,0,0,4.552-1.495l-1.116.5a21.233,21.233,0,0,0,3.511-2,5.447,5.447,0,0,0,.823-.615l-.543.45.393-.337a19.256,19.256,0,0,0,1.515-1.475c.443-.476.817-1.019,1.253-1.5-.917,1.005-.393.549-.162.212.181-.271.362-.542.53-.82a23.285,23.285,0,0,0,1.752-3.506l-.474,1.184a28.3,28.3,0,0,0,1.709-6.773l-.168,1.316a33.975,33.975,0,0,0-.012-8.116l.168,1.316a43.176,43.176,0,0,0-2.819-10.51l.474,1.184c-2.887-7.157-7.14-13.632-11.412-19.916q-1.59-2.341-3.23-4.65c-.249-.357-.505-.708-.761-1.065-.181-.251-1.21-1.66-.287-.4-.574-.78-1.141-1.561-1.721-2.335q-3.424-4.584-7.04-9.009a255.019,255.019,0,0,0-32.053-32.78c-1.6-1.363-3.224-2.705-4.839-4.055-.8-.661-1.59-1.323-2.388-1.984-.405-.337-.817-.668-1.222-1.005,1.166.959-.231-.192-.511-.417-3.249-2.639-6.542-5.225-9.953-7.62a5.224,5.224,0,0,1-1.677-6.786c1.31-2.156,4.216-3.314,6.4-1.779h0Z" transform="translate(-18.355 -113.905)" fill="#231f20"/>
    <path id="Path_38" data-name="Path 38" d="M117.877,402.743c.162-.066.318-.139.48-.212l-1.116.5a20.78,20.78,0,0,0,3.424-1.971c.287-.205.555-.47.854-.648-.6.5-.7.582-.324.258.137-.119.274-.238.405-.364q.7-.645,1.347-1.349c.38-.423.723-.88,1.091-1.316-1,1.21-.243.331-.025.007.181-.271.355-.542.524-.827a23.838,23.838,0,0,0,1.628-3.294l-.474,1.184a28.3,28.3,0,0,0,1.709-6.773l-.168,1.316a34.2,34.2,0,0,0-.044-8.374l.168,1.316a43.265,43.265,0,0,0-2.787-10.259l.474,1.184c-2.9-7.176-7.171-13.652-11.455-19.955q-1.656-2.441-3.367-4.842c-.287-.4-.58-.814-.873-1.217-.118-.159-.237-.324-.349-.483-.48-.661.143.205.206.278-.661-.807-1.241-1.693-1.871-2.527q-3.545-4.732-7.29-9.28a255.28,255.28,0,0,0-32.533-32.985c-.43-.364-.861-.728-1.3-1.085-.243-.205-1.715-1.409-.592-.5q-1.31-1.062-2.625-2.117c-.4-.318-.792-.648-1.185-.966,1.416,1.144.561.463.224.2-.474-.377-.954-.747-1.428-1.124q-1.319-1.022-2.644-2.024-5.322-4.018-10.838-7.725l2.363.675h-.012a4.969,4.969,0,0,1,0-9.921c1.908,0,3.586,1.488,5.12,2.553,1.16.8,2.314,1.621,3.461,2.441q3.5,2.51,6.916,5.159l1.553,1.21c.274.218.555.437.829.661.412.331,1.671,1.369.717.582-.755-.622-.156-.132.012,0,1.359,1.085,2.7,2.183,4.041,3.287q3.377,2.788,6.66,5.695a256.315,256.315,0,0,1,23.36,23.613,269.335,269.335,0,0,1,21.09,27.747,117.547,117.547,0,0,1,8.394,14.214,52.216,52.216,0,0,1,5.026,16.952,34.021,34.021,0,0,1-1.7,15.133,26.323,26.323,0,0,1-10.427,13.447,28.2,28.2,0,0,1-4.141,2.083,4.447,4.447,0,0,1-3.6-.5,5.141,5.141,0,0,1-2.151-2.963,5.281,5.281,0,0,1,.474-3.823,5.6,5.6,0,0,1,2.794-2.282h0Z" transform="translate(-16.849 -254.201)" fill="#231f20"/>
    <path id="Path_39" data-name="Path 39" d="M69.46,365.833a182.08,182.08,0,0,1,23.3,12.15A243.923,243.923,0,0,1,116.7,394.559c4,3.135,7.957,6.363,11.755,9.776a68.494,68.494,0,0,1,9.285,9.895,44.514,44.514,0,0,1,7.1,13.453,34.6,34.6,0,0,1,1.129,15.444,26.388,26.388,0,0,1-7.259,14.227,34.514,34.514,0,0,1-13.763,8,4.7,4.7,0,0,1-5.756-3.466,5.117,5.117,0,0,1,3.268-6.1c1.285-.423,2.551-.9,3.791-1.449l-1.116.5a31.524,31.524,0,0,0,3.823-2.037c.6-.384,1.191-.787,1.759-1.217.156-.119.312-.245.468-.364.424-.324-.973.833-.306.245.268-.238.536-.47.792-.714a21.028,21.028,0,0,0,1.484-1.541c.237-.271.468-.549.686-.833.056-.066.218-.364.293-.384-.137.033-.736,1.045-.237.317a21.7,21.7,0,0,0,2.214-4.141l-.474,1.184a23.172,23.172,0,0,0,1.378-5.4l-.168,1.316a28.4,28.4,0,0,0-.031-6.978l.168,1.316a33.286,33.286,0,0,0-2.077-7.858l.474,1.184a38.665,38.665,0,0,0-4.035-7.382c-.106-.152-.212-.3-.312-.443-.449-.648.218.291.256.344-.181-.265-.38-.509-.574-.761-.468-.615-.954-1.21-1.447-1.8-.873-1.045-1.79-2.05-2.725-3.029-1.983-2.064-4.078-4-6.23-5.867-1.091-.952-2.2-1.885-3.311-2.818-.262-.218-.53-.443-.8-.661-.15-.126-.306-.251-.455-.377s-.661-.542-.1-.079-.274-.225-.443-.357c-.343-.278-.692-.556-1.035-.833a245.041,245.041,0,0,0-30.195-20.723,169.139,169.139,0,0,0-15.721-8.188l1.116.5q-1.2-.536-2.413-1.052a5.139,5.139,0,0,1-2.794-2.282,5.353,5.353,0,0,1-.474-3.823,4.974,4.974,0,0,1,2.151-2.963,4.281,4.281,0,0,1,3.6-.5h0Z" transform="translate(-23.901 -365.51)" fill="#231f20"/>
    <path id="Path_40" data-name="Path 40" d="M58.349,264.516c-.05-.642-.112-1.283-.193-1.918l.168,1.316a43.788,43.788,0,0,0-2.719-10.331l.474,1.184a60.708,60.708,0,0,0-6.005-11.244c-.312-.463-.624-.926-.942-1.382-.224-.317-1.191-1.574-.243-.351-.692-.893-1.359-1.819-2.064-2.705-1.409-1.779-2.869-3.506-4.365-5.2-5.937-6.727-12.372-12.951-18.134-19.849A164.815,164.815,0,0,1,8.243,191.131C3.535,183.021-1.528,173.1.486,162.868a20.959,20.959,0,0,1,7.795-12.19c3.779-2.963,9.03-4.127,13.451-2.3a5.118,5.118,0,0,1,2.794,2.282A5.353,5.353,0,0,1,25,154.487a4.974,4.974,0,0,1-2.151,2.963,4.3,4.3,0,0,1-3.6.5,9.347,9.347,0,0,0-2.1-.6l1.241.179a9.4,9.4,0,0,0-2.513,0l1.241-.179a10.492,10.492,0,0,0-2.625.787l1.116-.5a12.267,12.267,0,0,0-2.251,1.336c-.293.218-.861.787.243-.218-.168.152-.343.3-.505.45-.337.311-.655.635-.96.972a4.552,4.552,0,0,0-.886,1.065l.455-.628c-.087.126-.181.251-.262.384-.131.192-.256.39-.38.589a17.224,17.224,0,0,0-1.253,2.48l.474-1.184a16.408,16.408,0,0,0-.967,3.8l.168-1.316a21.285,21.285,0,0,0,.037,5.232l-.168-1.316a31.956,31.956,0,0,0,2.027,7.415l-.474-1.184c2.613,6.515,6.4,12.594,10.221,18.374q1.459,2.212,2.993,4.365c.224.317.455.642.686.959.162.225.543.728-.212-.291.118.159.231.318.349.476.524.714,1.054,1.415,1.59,2.117q3.218,4.226,6.7,8.208c9.192,10.517,19.749,19.843,27,32.112a52.9,52.9,0,0,1,7.483,22.7,4.844,4.844,0,0,1-4.677,4.961c-2.706-.126-4.459-2.183-4.677-4.961h0Z" transform="translate(0 -25.187)" fill="#231f20"/>
    <path id="Path_41" data-name="Path 41" d="M13.67,296.827a5.714,5.714,0,0,0,.069.648l-.168-1.316a31.835,31.835,0,0,0,2.014,7.441l-.474-1.184c2.713,6.78,6.7,13.083,10.72,19.062q1.506,2.252,3.087,4.451c.143.205.293.41.437.609.106.152.505.708.075.106-.486-.681.1.132.168.225.118.159.237.324.355.483q.851,1.141,1.709,2.269,3.246,4.236,6.735,8.241c2.837,3.248,5.812,6.35,8.762,9.478a5.244,5.244,0,0,1,0,7.018,4.577,4.577,0,0,1-6.616,0,224.561,224.561,0,0,1-17.03-19.75A159.975,159.975,0,0,1,9.3,312.363a60.144,60.144,0,0,1-3.268-7.54A32.563,32.563,0,0,1,5.015,301.4a21.225,21.225,0,0,1-.7-4.57c0-2.593,2.151-5.08,4.677-4.961a4.917,4.917,0,0,1,4.677,4.961h0Z" transform="translate(-1.61 -206.947)" fill="#231f20"/>
    <path id="Path_42" data-name="Path 42" d="M41.055,371.09a19.4,19.4,0,0,0-2.4.026l1.241-.179a11.734,11.734,0,0,0-2.962.86l1.116-.5a14.661,14.661,0,0,0-2.363,1.356,2.971,2.971,0,0,0-.555.417c.137-.179.917-.78.324-.251-.349.311-.686.635-1,.979-.293.311-.574.635-.842.979-.231.291-.624,1,.168-.251-.125.2-.262.39-.393.589a15.219,15.219,0,0,0-1.266,2.5l.474-1.184a15.351,15.351,0,0,0-.836,3.38l.168-1.316a21.285,21.285,0,0,0,.037,5.232l-.168-1.316a32.281,32.281,0,0,0,2.033,7.415l-.474-1.184a103.638,103.638,0,0,0,9.79,17.733q1.375,2.1,2.825,4.167c.493.708,1,1.4,1.5,2.11-.867-1.217.019.02.218.291.293.4.586.787.886,1.184q3.4,4.484,7.09,8.711c2.856,3.267,5.843,6.4,8.818,9.551a5.244,5.244,0,0,1,0,7.018,4.577,4.577,0,0,1-6.616,0c-4.608-4.888-9.2-9.776-13.414-15.061a167.915,167.915,0,0,1-11.206-15.808,95.832,95.832,0,0,1-8.662-16.628c-2.488-6.522-3.218-14.181.025-20.57a20.012,20.012,0,0,1,6.922-7.62,16.183,16.183,0,0,1,4.689-2.09,18.924,18.924,0,0,1,4.827-.443,4.969,4.969,0,0,1,0,9.921h0Z" transform="translate(-8.435 -337.842)" fill="#231f20"/>
    <path id="Path_43" data-name="Path 43" d="M62.2,492.53a106.314,106.314,0,0,1-8-10.245,46.938,46.938,0,0,1-5.756-10.576c-2.307-6.052-2.831-14.234,2.22-18.97a12.4,12.4,0,0,1,5.157-2.99,16.378,16.378,0,0,1,7.078-.132,4.718,4.718,0,0,1,2.794,2.282,5.353,5.353,0,0,1,.474,3.823,4.974,4.974,0,0,1-2.151,2.963,5.2,5.2,0,0,1-3.6.5l-.256-.04,1.241.179a12.534,12.534,0,0,0-3.187-.06l1.241-.179a8.778,8.778,0,0,0-2.338.661l1.116-.5a9.294,9.294,0,0,0-1.228.721c-.661.45.954-.9.268-.218-.168.165-.331.324-.486.5s-.649.84-.062.033.087-.106-.05.119a8.683,8.683,0,0,0-.58,1.164l.474-1.184a9.334,9.334,0,0,0-.567,2.183l.168-1.316a16.181,16.181,0,0,0,.1,3.883l-.168-1.316a24.791,24.791,0,0,0,1.559,5.768l-.474-1.184a45.479,45.479,0,0,0,5.244,9.108c.374.529-.15-.192-.243-.331.131.192.274.37.405.556l.8,1.072c.586.78,1.185,1.548,1.79,2.315,1.172,1.488,2.345,3.023,3.623,4.412a5.251,5.251,0,0,1,0,7.018,4.539,4.539,0,0,1-6.616,0h0Z" transform="translate(-17.587 -449.287)" fill="#231f20"/>
    <path id="Path_44" data-name="Path 44" d="M120.827,418.316h0c-.056-.437-.112-.88-.168-1.316h0l-.474-1.184h0l-.73-1.005h0l-.948-.774h0l-1.116-.5h0l-1.241-.179h0a3.35,3.35,0,0,1,1.8.43,3.478,3.478,0,0,1,1.5,1.025l.73,1.005a5.128,5.128,0,0,1,.636,2.507h0c-.056-.437-.112-.88-.168-1.316h0l-.474-1.184h0l-.73-1.005h0l-.948-.774h0l-1.116-.5h0l-1.241-.179h0a3.35,3.35,0,0,1,1.8.43,3.477,3.477,0,0,1,1.5,1.025l.73,1.005a5.128,5.128,0,0,1,.636,2.507h0c-.056-.437-.112-.88-.168-1.316h0l-.474-1.184h0l-.73-1.005h0l-.948-.774h0l-1.116-.5h0l-1.241-.179h0a3.35,3.35,0,0,1,1.8.43,3.477,3.477,0,0,1,1.5,1.025,3.736,3.736,0,0,1,.967,1.594,3.986,3.986,0,0,1,.405,1.912l-.168,1.316a5.072,5.072,0,0,1-1.2,2.189l-.948.774a4.417,4.417,0,0,1-2.363.675l-1.247-.179a3.83,3.83,0,0,1-1.122-.5,4.838,4.838,0,0,1-1.684-1.786,5.2,5.2,0,0,1-.642-2.507l4.677,4.961-1.247-.179a3.829,3.829,0,0,1-1.122-.5,4.838,4.838,0,0,1-1.684-1.786,5.2,5.2,0,0,1-.642-2.507l4.677,4.961-1.247-.179a3.829,3.829,0,0,1-1.122-.5,4.838,4.838,0,0,1-1.684-1.786,5.2,5.2,0,0,1-.642-2.507,3.915,3.915,0,0,1,.405-1.912,3.736,3.736,0,0,1,.967-1.594,3.478,3.478,0,0,1,1.5-1.025,3.41,3.41,0,0,1,1.8-.43l1.241.179a4.658,4.658,0,0,1,2.064,1.277l.73,1.005a5.128,5.128,0,0,1,.636,2.507h0Z" transform="translate(-41.918 -354.794)" fill="#231f20"/>
    <path id="Path_45" data-name="Path 45" d="M4.33,389.259a22.021,22.021,0,0,1,1.7-8.771,11.73,11.73,0,0,1,6.934-6.383,20.1,20.1,0,0,1,8.537-.556,44.11,44.11,0,0,1,8.861,1.726,44.907,44.907,0,0,1,9.285,4.134,5.178,5.178,0,0,1,1.677,6.786,4.678,4.678,0,0,1-6.4,1.779,40.965,40.965,0,0,0-3.985-2.057l1.116.5a39.362,39.362,0,0,0-10.14-2.923l1.241.179a27.009,27.009,0,0,0-7.227-.232l1.241-.179a9.7,9.7,0,0,0-2.189.6l1.116-.5c-.231.106-.455.212-.68.337a4.3,4.3,0,0,1-.617.4c.106.026.979-.873.355-.271a5.39,5.39,0,0,0-.455.483c-.524.608.2-.205.256-.39a3.877,3.877,0,0,1-.355.569,9.553,9.553,0,0,0-.586,1.23l.474-1.184a14.676,14.676,0,0,0-.829,3.439l.168-1.316a22.843,22.843,0,0,0-.143,2.613c0,2.593-2.151,5.08-4.677,4.961a4.917,4.917,0,0,1-4.677-4.961h0Z" transform="translate(-1.618 -299.313)" fill="#231f20"/>
  </g>
</svg>
