<?xml version="1.0" encoding="UTF-8"?><svg id="Layer_1" xmlns="http://www.w3.org/2000/svg" viewBox="0 0 524.82 511.08"><defs><style>.cls-1,.cls-2{fill:none;}.cls-3{fill:#231f20;}.cls-2{stroke:#231f20;stroke-miterlimit:10;stroke-width:5px;}</style></defs><g><path class="cls-3" d="M433.42,162.55c-.9,15.05-1.94,30.08-3.12,45.11-1.14,14.61-2.49,29.24-5.26,43.64-2.51,13.04-6.15,25.98-11.95,37.96-5.9,12.17-13.95,23.05-24.1,32-10.02,8.83-21.85,15.75-34.38,20.35s-25.61,6.5-38.86,5.73c-6.66-.39-13.25-1.42-19.75-2.91-5.46-1.25-10.91-2.7-16.06-4.91-9.53-4.08-18.37-9.88-26.51-16.25s-16.07-13.73-23.18-21.52c-5.47-5.99-10.52-11.98-14.47-19.1-.34-.61-.66-1.23-.97-1.86-.13-.26-.25-.53-.37-.8-.07-.15-.14-.31-.2-.46,.28,.65,.06,.13,0,0-.5-1.25-1.67-2.13-3.08-1.75-1.19,.33-2.25,1.82-1.75,3.08,2.81,6.96,7.63,13.09,12.39,18.81,6.65,7.99,14.07,15.36,21.96,22.12,8.4,7.19,17.42,13.81,27.21,18.97,10.73,5.65,22.47,8.79,34.44,10.52,13.57,1.96,27.34,1.6,40.66-1.78,13.44-3.41,26.36-9.59,37.61-17.67,11.52-8.27,21.36-18.66,28.71-30.81s11.77-24.34,15.04-37.4c3.61-14.38,5.48-29.16,6.84-43.9s2.44-30.5,3.42-45.76c.25-3.8,.48-7.61,.71-11.41,.19-3.21-4.81-3.2-5,0h0Z"/><path class="cls-3" d="M210.02,202.92c-4.72-2.31-9.18-5.11-13.96-7.3-5.13-2.35-10.53-3.92-16.21-4-2.28-.03-4.57,.51-6.77,1.08-1.87,.48-3.49,1.19-5.1,2.27-1.75,1.17-3.59,2.47-5.01,4.04-1.64,1.81-2.77,4.23-3.74,6.44-8.94,20.43,1.79,42.83,16.82,57.2,9.9,9.47,22.61,14.8,35.09,19.97,1.25,.52,2.75-.56,3.08-1.75,.39-1.44-.49-2.56-1.75-3.08-10.16-4.2-20.68-8.51-29.29-15.5-7.86-6.38-14.45-14.76-18.51-24.05-3.65-8.36-5-17.86-2.38-26.71,.64-2.18,1.51-4.26,2.58-6.26,.31-.57,.62-1.12,.96-1.67,.14-.22,.27-.44,.41-.66,.03-.05,.62-.79,.13-.23,.56-.64,1.22-1.2,1.88-1.74,1.34-1.1,2.83-2.13,4.4-2.93,.35-.18-.53,.16-.02,.01,.14-.04,.28-.09,.42-.13,.45-.14,.91-.26,1.37-.38,1.09-.28,2.19-.53,3.3-.73,4.69-.84,10.62,.84,15.14,2.84,5.04,2.22,9.7,5.19,14.64,7.61,1.21,.59,2.7,.33,3.42-.9,.64-1.1,.32-2.82-.9-3.42h0Z"/><path class="cls-3" d="M416.31,192.99c-3.88-3.35-8.17-6.42-12.69-8.84-3.18-1.71-6.64-3.2-10.28-3.43-5.31-.33-10.72,1-15.57,3.08-2.67,1.15-5.2,2.58-7.56,4.28-1.19,.86-2.36,1.77-3.46,2.74s-2.85,2.28-2.85,3.88c0,3.22,5,3.22,5,0h0c-.24,.58-.49,1.17-.73,1.76,6.15-6.74,15.87-11.21,25.05-10.74,.11,0,.88,.07,.46,.02,.35,.04,.69,.12,1.04,.19,.77,.17,1.54,.4,2.28,.67,1.41,.5,2.71,1.12,4.1,1.87,2.77,1.49,5.4,3.24,7.93,5.1,.3,.22,.59,.44,.88,.66,.12,.09,.24,.19,.37,.28,.37,.29-.12-.1,.09,.07,.43,.33,.85,.67,1.27,1.01,.38,.31,.76,.62,1.14,.94,1.02,.88,2.53,1,3.54,0,.9-.9,1.03-2.65,0-3.54h0Z"/><path class="cls-2" d="M383.11,184.51c5.8,3.38,9.98,13,9.98,24.35,0,14.16-6.52,25.64-14.56,25.64s-14.56-11.48-14.56-25.64c0-5.24,.89-10.11,2.42-14.17"/><path class="cls-3" d="M404.83,187.96c3.91,.17,7.64-1.47,10.56-4s4.7-5.77,6.08-9.2c.49-1.22-.53-2.8-1.75-3.08-1.45-.33-2.55,.44-3.08,1.75-.17,.42,.04-.08-.07,.17-.08,.18-.16,.36-.24,.54-.15,.32-.3,.65-.47,.96-.34,.67-.71,1.33-1.12,1.96-.21,.33-.44,.65-.67,.98-.25,.36,.05-.05-.11,.15-.12,.15-.25,.31-.38,.46-.49,.57-1.01,1.11-1.57,1.61-.12,.11-.24,.21-.36,.31-.11,.09-.42,.33-.15,.13-.32,.24-.65,.46-.98,.67-.3,.19-.61,.37-.93,.53-.18,.09-.36,.17-.53,.26-.4,.2,.08-.01-.17,.07-.71,.25-1.41,.48-2.16,.62-.06,.01-.68,.09-.37,.06s-.39,.02-.37,.02c-.39,.02-.79,.02-1.18,0-1.31-.06-2.56,1.19-2.5,2.5,.06,1.4,1.1,2.44,2.5,2.5h0Z"/><path class="cls-3" d="M411.95,193.65c3.91,.17,7.64-1.47,10.56-4s4.7-5.77,6.08-9.2c.49-1.22-.53-2.8-1.75-3.08-1.45-.33-2.55,.44-3.08,1.75-.17,.42,.04-.08-.07,.17-.08,.18-.16,.36-.24,.54-.15,.32-.3,.65-.47,.96-.34,.67-.71,1.33-1.12,1.96-.21,.33-.44,.65-.67,.98-.25,.36,.05-.05-.11,.15-.12,.15-.25,.31-.38,.46-.49,.57-1.01,1.11-1.57,1.61-.12,.11-.24,.21-.36,.31-.11,.09-.42,.33-.15,.13-.32,.24-.65,.46-.98,.67-.3,.19-.61,.37-.93,.53-.18,.09-.36,.17-.53,.26-.4,.2,.08-.01-.17,.07-.71,.25-1.41,.48-2.16,.62-.06,.01-.68,.09-.37,.06s-.39,.02-.37,.02c-.39,.02-.79,.02-1.18,0-1.31-.06-2.56,1.19-2.5,2.5,.06,1.4,1.1,2.44,2.5,2.5h0Z"/><path class="cls-3" d="M307.21,189.84c-3.88-3.35-8.17-6.42-12.69-8.84-3.18-1.71-6.64-3.2-10.28-3.43-5.31-.33-10.72,1-15.57,3.08-2.67,1.15-5.2,2.58-7.56,4.28-1.19,.86-2.36,1.77-3.46,2.74s-2.85,2.28-2.85,3.88c0,3.22,5,3.22,5,0h0c-.24,.58-.49,1.17-.73,1.76,6.15-6.74,15.87-11.21,25.05-10.74,.11,0,.88,.07,.46,.02,.35,.04,.69,.12,1.04,.19,.77,.17,1.54,.4,2.28,.67,1.41,.5,2.71,1.12,4.1,1.87,2.77,1.49,5.4,3.24,7.93,5.1,.3,.22,.59,.44,.88,.66,.12,.09,.24,.19,.37,.28,.37,.29-.12-.1,.09,.07,.43,.33,.85,.67,1.27,1.01,.38,.31,.76,.62,1.14,.94,1.02,.88,2.53,1,3.54,0,.9-.9,1.03-2.65,0-3.54h0Z"/><path class="cls-2" d="M274.01,181.36c5.8,3.38,9.98,13,9.98,24.35,0,14.16-6.52,25.64-14.56,25.64s-14.56-11.48-14.56-25.64c0-5.24,.89-10.11,2.42-14.17"/><path class="cls-3" d="M295.73,184.81c3.91,.17,7.64-1.47,10.56-4s4.7-5.77,6.08-9.2c.49-1.22-.53-2.8-1.75-3.08-1.45-.33-2.55,.44-3.08,1.75-.17,.42,.04-.08-.07,.17-.08,.18-.16,.36-.24,.54-.15,.32-.3,.65-.47,.96-.34,.67-.71,1.33-1.12,1.96-.21,.33-.44,.65-.67,.98-.25,.36,.05-.05-.11,.15-.12,.15-.25,.31-.38,.46-.49,.57-1.01,1.11-1.57,1.61-.12,.11-.24,.21-.36,.31-.11,.09-.42,.33-.15,.13-.32,.24-.65,.46-.98,.67-.3,.19-.61,.37-.93,.53-.18,.09-.36,.17-.53,.26-.4,.2,.08-.01-.17,.07-.71,.25-1.41,.48-2.16,.62-.06,.01-.68,.09-.37,.06s-.39,.02-.37,.02c-.39,.02-.79,.02-1.18,0-1.31-.06-2.56,1.19-2.5,2.5,.06,1.4,1.1,2.44,2.5,2.5h0Z"/><path class="cls-3" d="M302.84,190.5c3.91,.17,7.64-1.47,10.56-4s4.7-5.77,6.08-9.2c.49-1.22-.53-2.8-1.75-3.08-1.45-.33-2.55,.44-3.08,1.75-.17,.42,.04-.08-.07,.17-.08,.18-.16,.36-.24,.54-.15,.32-.3,.65-.47,.96-.34,.67-.71,1.33-1.12,1.96-.21,.33-.44,.65-.67,.98-.25,.36,.05-.05-.11,.15-.12,.15-.25,.31-.38,.46-.49,.57-1.01,1.11-1.57,1.61-.12,.11-.24,.21-.36,.31-.11,.09-.42,.33-.15,.13-.32,.24-.65,.46-.98,.67-.3,.19-.61,.37-.93,.53-.18,.09-.36,.17-.53,.26-.4,.2,.08-.01-.17,.07-.71,.25-1.41,.48-2.16,.62-.06,.01-.68,.09-.37,.06s-.39,.02-.37,.02c-.39,.02-.79,.02-1.18,0-1.31-.06-2.56,1.19-2.5,2.5,.06,1.4,1.1,2.44,2.5,2.5h0Z"/><path class="cls-3" d="M284.71,279.84c18.99,1.64,37.98,3.27,56.98,4.91l16.35,1.41-2.41-3.16c-3.67,9.67-15.12,14.05-24.64,14.96-10.92,1.05-22.04-1.59-31.35-7.37-2.58-1.6-5-3.44-7.22-5.51-2.02-1.89-4.48-4.25-4.72-7.17-.11-1.35-1.07-2.5-2.5-2.5-1.27,0-2.61,1.15-2.5,2.5,.55,6.64,6.47,11.42,11.51,15.05s10.84,6.38,16.83,8.1c11.69,3.34,25.03,3.03,36.01-2.52,6.02-3.04,10.99-7.84,13.4-14.2,.63-1.65-.95-3.04-2.41-3.16-18.99-1.64-37.98-3.27-56.98-4.91l-16.35-1.41c-1.35-.12-2.5,1.23-2.5,2.5,0,1.45,1.15,2.38,2.5,2.5h0Z"/><path class="cls-2" d="M209.11,254.7c1.96-1.29,4.07-1.99,6.26-1.99,10.79,0,19.54,16.98,19.54,37.92s-8.75,37.93-19.54,37.93-19.53-16.98-19.53-37.93c0-5.93,.7-11.55,1.95-16.55"/><path class="cls-2" d="M426.98,254.34c6.84,5.89,11.62,19.2,11.62,34.67,0,20.94-8.75,37.92-19.53,37.92-6.73,0-12.66-6.6-16.17-16.64"/><path class="cls-3" d="M310.67,350.81c-9.24,14.27-15.61,30.42-18.57,47.15-.85,4.82-1.44,9.69-1.75,14.57-.09,1.35,1.21,2.5,2.5,2.5,1.42,0,2.41-1.15,2.5-2.5,1.04-16.31,5.38-32.43,12.68-47.05,2.09-4.18,4.42-8.24,6.96-12.16,1.75-2.71-2.57-5.22-4.32-2.52h0Z"/><path class="cls-3" d="M229.67,314.93c-.36,19.44-8.26,37.64-15.94,55.16-.54,1.24-.36,2.68,.9,3.42,1.06,.62,2.88,.35,3.42-.9,6.26-14.27,12.64-28.78,15.3-44.23,.77-4.45,1.24-8.94,1.32-13.45,.06-3.22-4.94-3.22-5,0h0Z"/><path class="cls-3" d="M205.03,205.21c21.24-7.63,40.95-19.01,58.35-33.36,17.25-14.23,32.11-31.41,43.66-50.57,6.52-10.82,11.95-22.29,16.19-34.19,.45-1.27-.51-2.74-1.75-3.08-1.38-.38-2.62,.47-3.08,1.75-7.31,20.51-18.4,39.68-32.32,56.42-13.92,16.74-30.6,31.16-49.24,42.41-10.5,6.34-21.6,11.66-33.14,15.81-1.27,.46-2.12,1.7-1.75,3.08,.34,1.23,1.8,2.2,3.08,1.75h0Z"/><path class="cls-3" d="M319.42,90.59c11.89-.64,23.11,4.38,33.54,9.53,9.51,4.69,18.71,10.01,27.54,15.88,17.6,11.71,33.66,25.68,47.74,41.44,7.92,8.86,15.17,18.29,21.71,28.21,1.76,2.67,6.1,.17,4.32-2.52-11.98-18.16-26.32-34.77-42.55-49.26s-34.3-26.94-53.7-36.79c-11.91-6.05-24.9-12.22-38.6-11.48-3.2,.17-3.22,5.17,0,5h0Z"/><path class="cls-3" d="M168.5,255.11c-5.35,15.13-10.73,32.51-2.15,47.57,1.83,3.21,4.26,5.99,7.19,8.22,2.77,2.11,5.95,3.56,9.07,5.07,2.95,1.44,6,2.93,8.34,5.29s3.54,5.23,3.68,8.4c.32,7.2-3.7,14.14-7.84,19.74-4.67,6.31-10.2,11.97-13.47,19.22-1.59,3.53-2.7,7.31-2.63,11.23s1.31,7.63,3.31,10.96,4.39,5.96,6.6,8.92,4.09,6.19,5.12,9.83c4.58,16.18-4.65,31.79-13.74,44.45-1.22,1.7-2.46,3.38-3.69,5.06-.8,1.09-.18,2.79,.9,3.42,1.27,.74,2.62,.19,3.42-.9,9.76-13.27,20.07-27.96,19.22-45.25-.2-3.96-.97-7.89-2.5-11.56s-3.79-6.82-6.24-9.94c-2.21-2.82-4.54-5.63-6.03-8.91s-1.72-6.78-.95-10.17c1.69-7.48,6.92-13.78,11.65-19.58s9.4-12.43,11.18-20.01,.07-14.87-5.9-19.73c-5.43-4.42-12.7-5.94-17.89-10.64s-7.64-11.35-8.22-18.03c-.75-8.58,1.54-17.03,4.23-25.1,.7-2.08,1.43-4.15,2.16-6.22,.45-1.27-.51-2.74-1.75-3.08-1.38-.38-2.62,.47-3.08,1.75h0Z"/><path class="cls-3" d="M150.06,259.33c-8.45,13.63-17.58,29.61-12.29,46.16,1.16,3.63,3,6.99,5.54,9.84,2.31,2.61,5.15,4.67,7.87,6.83,2.56,2.04,5.21,4.2,6.89,7.06s2.13,6.06,1.45,9.21c-1.58,7.37-7.4,13.41-13.02,18.06s-11.5,8.95-15.97,14.81-6.59,13.04-4.57,20.32,7.39,13.99,7.91,22.11c1.09,16.85-11.16,30.15-22.79,40.63-1.56,1.41-3.14,2.8-4.72,4.19-1.01,.89-.91,2.62,0,3.54,1.01,1.01,2.52,.89,3.54,0,12.34-10.86,25.63-23.02,28.47-40.07,.69-4.14,.75-8.29-.02-12.43s-2.45-7.62-4.2-11.21c-1.65-3.39-3.48-6.92-3.92-10.72-.37-3.16,.26-6.37,1.68-9.21,3.16-6.32,8.9-11.03,14.31-15.37,6.04-4.85,12-9.93,15.68-16.89s4.13-14.84-.68-21.22c-4.22-5.6-10.92-8.6-15.17-14.14s-5.47-13.52-4.45-20.51c1.2-8.28,5.17-15.84,9.4-22.93,1.11-1.86,2.25-3.7,3.39-5.54,1.7-2.74-2.62-5.26-4.32-2.52h0Z"/><path class="cls-3" d="M128.89,254.19c-5.61,6.54-11.33,13.19-15.19,20.95-3.65,7.34-5.47,15.57-4.07,23.73,.65,3.81,2.15,7.51,4.4,10.66s4.79,5.6,7.25,8.35c2.16,2.41,4.23,5.04,5.09,8.22,.8,2.97,.43,6.08-.83,8.87-2.93,6.49-9.15,11.25-15.11,14.8s-12.24,6.81-17.46,11.57c-5.26,4.8-8.95,11.26-8.5,18.57,.26,4.3,1.65,8.37,2.88,12.46s1.97,7.72,1.7,11.81c-1.11,16.8-15.59,28.34-28.56,36.83-1.76,1.15-3.53,2.28-5.31,3.41-2.71,1.72-.2,6.05,2.52,4.32,14.06-8.97,28.97-18.94,34.56-35.52,1.28-3.8,1.97-7.88,1.84-11.89-.14-4.35-1.37-8.48-2.64-12.6-1.19-3.87-2.44-7.9-1.93-12,.37-3.02,1.73-5.87,3.58-8.26,4.04-5.23,10.03-8.75,15.66-11.99,6.48-3.73,12.94-7.66,17.66-13.62s6.97-13.04,4.06-20.11-9.12-10.88-12.96-16.94c-4.13-6.52-4.12-14.72-1.98-21.93,2.37-8,7.47-14.93,12.73-21.27,1.36-1.64,2.75-3.26,4.14-4.88,.88-1.02,1.01-2.53,0-3.54-.9-.9-2.65-1.03-3.54,0h0Z"/><path class="cls-3" d="M111.57,236.16c-6.61,5.14-13.31,10.36-18.52,16.98s-8.86,14.6-8.92,23.13c-.03,4.15,.92,8.16,2.69,11.9,1.65,3.47,3.9,6.6,5.74,9.96,1.65,3.03,2.85,6.28,2.51,9.78-.25,2.65-1.57,5.32-3.36,7.43-9.06,10.71-24.43,11.29-35.96,18.02-5.98,3.49-11.05,8.8-12.31,15.83-1.53,8.52,1.83,17.08-.51,25.53-4.48,16.19-20.72,24.64-35.15,30.38-1.98,.79-3.97,1.55-5.97,2.32-1.26,.48-2.13,1.68-1.75,3.08,.33,1.21,1.81,2.23,3.08,1.75,15.62-5.99,32.5-12.8,41.2-28.1,1.95-3.43,3.43-7.21,4.07-11.11,.72-4.38,.34-8.69-.08-13.08s-.77-8.66,.83-12.71c1.09-2.76,3.02-5.05,5.28-6.94,5.03-4.22,11.64-6.4,17.78-8.43,6.79-2.24,13.37-4.77,19.04-9.23,5.27-4.15,9.33-10.27,8.8-17.22-.31-4.04-1.96-7.71-3.97-11.16-1.87-3.22-4.12-6.31-5.49-9.79-2.95-7.5-1.2-15.91,2.62-22.76,4.05-7.25,10.4-12.91,16.81-18.06,1.67-1.34,3.36-2.65,5.05-3.97,1.07-.83,.87-2.66,0-3.54-1.05-1.05-2.47-.83-3.54,0h0Z"/><path class="cls-3" d="M386.53,323.88c.11,6.29,2.05,12.53,5.56,17.75,1.76,2.63,3.87,5.04,6.32,7.05s5.35,3.61,8.21,5.2c2.57,1.43,5.17,3.01,6.8,5.55,1.4,2.18,2.03,4.68,2.1,7.26,.16,5.77-1.93,11.52-4.46,16.63-3.09,6.25-6.7,12.44-8.09,19.36-.69,3.42-.83,6.94-.03,10.35,.74,3.16,2.33,5.98,4.35,8.5,3.7,4.6,8.8,7.81,12.72,12.21s6.08,10.42,6.08,16.36c0,7.14-3.66,13.14-6.59,19.41s-5.22,13.3-1.62,19.86c1.55,2.82,5.87,.3,4.32-2.52-2.77-5.04-.3-10.79,1.96-15.53,2.79-5.87,6-11.55,6.75-18.11,.71-6.22-.7-12.73-3.82-18.15s-8.03-9-12.51-13.13c-2.06-1.9-4-3.93-5.37-6.4-1.5-2.73-2-5.79-1.79-8.88,.45-6.64,3.87-12.88,6.86-18.68,5.19-10.07,10.53-24.81,.98-34.12-2.59-2.52-5.86-4.11-8.98-5.86s-5.6-3.68-7.85-6.25c-4.3-4.9-6.79-11.35-6.89-17.86-.05-3.21-5.05-3.22-5,0h0Z"/><path class="cls-3" d="M464.84,248.02c.87,6.16,3.67,11.92,7.7,16.63,2.05,2.39,4.47,4.48,7.12,6.19s5.71,2.88,8.7,4.07c2.83,1.13,5.64,2.46,7.62,4.85,1.55,1.86,2.38,4.16,2.81,6.52,.99,5.42-.34,11.22-2.01,16.37-2.14,6.58-4.92,12.87-5.8,19.8s.72,13.49,5.48,18.57c4.14,4.41,9.73,6.99,14.32,10.84s7.82,9.41,8.77,15.5c1.12,7.14-1.72,13.69-3.92,20.32s-3.82,14.06,.54,20.08c.79,1.09,2.17,1.63,3.42,.9,1.08-.63,1.69-2.32,.9-3.42-3.57-4.93-1.79-10.94-.04-16.23,2.04-6.16,4.58-12.25,4.35-18.87-.23-6.59-2.63-12.94-6.77-18.06-3.85-4.76-9.32-7.63-14.18-11.2-2.26-1.66-4.41-3.6-5.88-6.01-1.6-2.64-2.26-5.65-2.26-8.72,.01-6.87,2.76-13.49,5.07-19.85,3.7-10.17,6.21-24.56-3.58-32.24-3.15-2.47-6.93-3.64-10.56-5.18-2.94-1.25-5.68-2.95-8.03-5.12-4.88-4.5-8.03-10.51-8.96-17.08-.19-1.34-1.89-2.07-3.08-1.75-1.44,.4-1.94,1.73-1.75,3.08h0Z"/><path class="cls-3" d="M357.84,343.42c1.47,2.75,3.34,5.31,5.54,7.52,2.01,2.02,4.28,3.75,6.26,5.8,1.87,1.94,3.24,4.15,3.78,6.81,.49,2.41,.16,4.94-.51,7.28-3.17,11.17-13.19,18.33-18.63,28.23-2.76,5.02-4.26,10.64-3.12,16.35s4.61,9.96,7.81,14.36,6.01,9.04,6.57,14.61-.54,10.94-3.4,15.63c-5.44,8.93-17.26,17.36-13.86,29.21,.89,3.09,5.71,1.77,4.82-1.33-1.27-4.41,.76-8.44,3.33-12.12,2.91-4.16,6.46-7.83,9.28-12.06,6.59-9.89,6.47-22.85,.12-32.8-2.88-4.5-6.74-8.52-8.83-13.5s-1.32-10.12,1.05-14.79c2.55-5.03,6.25-9.33,9.86-13.61,3.84-4.55,7.27-9.52,9.29-15.17,2.15-6.04,2.04-12.89-1.92-18.17-2.01-2.69-4.58-4.76-7.04-7.02s-4.5-4.8-6.09-7.77-5.83-.32-4.32,2.52h0Z"/><path class="cls-3" d="M428.7,319.51c2.41,5.83,6.16,10.84,11.23,14.61,2.48,1.84,5.2,3.13,8.02,4.36s5.55,2.37,7.67,4.49c3.61,3.62,4.13,8.91,3.62,13.76-.6,5.73-2.86,11.04-4.98,16.34-2.46,6.16-4.87,12.8-4.48,19.54s3.5,11.75,8.35,15.85c4.33,3.66,9.45,6.42,13.21,10.72s5.77,9.87,5.92,15.45c.19,6.83-2.97,12.98-5.21,19.26s-3.6,13.14,.31,18.96c1.78,2.66,6.12,.16,4.32-2.52-3.14-4.68-1.56-10.19,.2-15.11,2.06-5.77,4.75-11.35,5.3-17.53,.53-6.03-.96-12.28-4-17.5s-7.77-8.79-12.62-12.31c-4.37-3.17-8.8-6.64-10.25-12.1-1.64-6.16,.5-12.73,2.66-18.49,2.11-5.64,4.67-11.06,5.77-17.02,1.02-5.53,1.08-11.38-1.46-16.53-1.44-2.92-3.79-5.28-6.54-6.99-2.94-1.82-6.26-2.88-9.32-4.47-5.76-3-10.41-8.1-12.89-14.11-.51-1.25-1.66-2.14-3.08-1.75-1.18,.32-2.26,1.82-1.75,3.08h0Z"/><path class="cls-3" d="M246.92,99.42c-7.09,12.93-15.99,24.78-26.48,35.14-3,2.96-6.12,5.8-9.35,8.51-1.03,.87-.9,2.64,0,3.54,1.02,1.02,2.5,.87,3.54,0,11.55-9.69,21.66-21.07,29.98-33.65,2.36-3.58,4.57-7.25,6.63-11.01,1.55-2.82-2.77-5.35-4.32-2.52h0Z"/><path class="cls-3" d="M230.51,75.49c-12.07,24.99-25.58,49.36-40.7,72.65-3.63,5.6-7.62,11.22-13.24,15-2.66,1.79-.16,6.12,2.52,4.32,5.31-3.57,9.37-8.45,12.96-13.68,3.87-5.64,7.43-11.51,10.98-17.34,7.33-12.04,14.29-24.31,20.87-36.78,3.77-7.15,7.4-14.36,10.92-21.64,.59-1.22,.33-2.7-.9-3.42-1.1-.64-2.83-.32-3.42,.9h0Z"/><path class="cls-3" d="M327.44,65.04c15.98-1.63,32.17-.57,47.82,3.05,15.66,3.63,30.69,9.74,44.4,18.14,13.64,8.35,25.78,18.95,35.91,31.33,9.97,12.17,17.98,26.07,23.6,40.77,5.64,14.73,9.01,30.33,9.69,46.1,.09,2,.13,4,.13,6,0,3.22,5.01,3.22,5,0-.04-16.35-2.82-32.69-8.09-48.16-5.26-15.41-12.9-30.02-22.7-43.02-9.96-13.22-21.99-24.7-35.74-33.94s-28.92-16.11-44.79-20.48-32.66-6.26-49.18-5.27c-2.02,.12-4.04,.29-6.06,.49-1.34,.14-2.5,1.05-2.5,2.5,0,1.25,1.15,2.64,2.5,2.5h0Z"/><path class="cls-3" d="M420.43,49.13c13.29,5.99,25.72,13.87,36.8,23.34s20.89,20.46,29.01,32.58,14.6,25.3,19.03,39.2c2.52,7.9,4.76,16.17,5.03,24.5,.14,4.46-.38,8.84-1.75,13.1-1.28,3.97-3.21,7.68-5.38,11.23-4.73,7.76-10.37,15-15.66,22.38-5.72,7.97-11.44,15.93-17.15,23.9-1.41,1.96-2.81,3.92-4.22,5.87-.79,1.1-.19,2.78,.9,3.42,1.26,.74,2.63,.2,3.42-.9,5.81-8.1,11.63-16.2,17.44-24.3s11.36-15.51,16.75-23.46c4.98-7.36,9.19-15.28,10.33-24.21s-.79-18.49-3.23-27.3c-4-14.45-10.16-28.33-18.05-41.08-7.93-12.81-17.63-24.56-28.73-34.74-11.05-10.14-23.49-18.81-36.93-25.46-1.68-.83-3.37-1.63-5.08-2.4-1.23-.55-2.69-.35-3.42,.9-.63,1.07-.34,2.86,.9,3.42h0Z"/><path class="cls-3" d="M174.79,213.36c6.68,1.34,12.61,6,15.1,12.42l4.18-2.43c-2.89-2.59-6.91-2.95-10.41-1.41s-5.72,5.02-6.48,8.66c-.42,1.99-.52,4.05-.19,6.06,.35,2.15,1.5,3.87,3.07,5.32,3.1,2.87,6.62,5.33,10.32,7.37,2.82,1.56,5.34-2.76,2.52-4.32s-5.4-3.26-7.81-5.29c-1-.83-2.38-1.77-2.92-3s-.45-2.7-.31-3.96c.25-2.19,1.19-4.63,3.1-5.89,1.6-1.06,4.06-1.38,5.58-.02,.83,.75,2.03,.97,3.03,.39,.89-.52,1.54-1.81,1.15-2.82-3.11-8-10.11-14.21-18.59-15.91-1.32-.27-2.7,.38-3.08,1.75-.34,1.23,.42,2.81,1.75,3.08h0Z"/><path class="cls-3" d="M218.86,31.6c-16.77-2.38-32.33,5.42-44.69,16.19-6.27,5.47-11.7,11.76-16.72,18.38s-9.35,13.31-13.32,20.4c-7.99,14.26-14.11,29.54-18.77,45.2-4.72,15.87-7.96,32.15-10.25,48.54-2.31,16.57-3.7,33.26-4.54,49.97-.1,2.02-.2,4.05-.29,6.08-.14,3.22,4.86,3.21,5,0,.71-16.26,1.85-32.51,3.85-48.67s4.84-31.85,9.01-47.39,9.52-30.36,16.73-44.52c7.13-13.99,15.93-27.55,26.92-38.84s24.47-20.62,40.15-20.83c1.86-.02,3.74,.06,5.58,.32,1.34,.19,2.69-.33,3.08-1.75,.32-1.17-.4-2.88-1.75-3.08h0Z"/><path class="cls-3" d="M221.67,35.77c10.25-11.7,23.91-19.41,38.67-23.95,15-4.61,30.74-6.24,46.37-6.68,19.04-.54,38.34,.09,57.05,3.87,17.24,3.49,33.56,9.9,48.27,19.58,13.85,9.11,26.09,20.77,36.01,34.04,1.25,1.67,2.47,3.38,3.65,5.1,.76,1.11,2.19,1.61,3.42,.9,1.1-.64,1.67-2.3,.9-3.42-9.81-14.28-21.9-26.88-35.91-37.09-14.33-10.44-30.54-17.96-47.73-22.28C352.93,.95,332.75-.18,312.78,.02c-16.28,.17-32.74,1.38-48.55,5.49s-30.36,11.07-41.92,22.3c-1.45,1.41-2.84,2.89-4.18,4.41-.89,1.01-1,2.54,0,3.54,.91,.91,2.64,1.02,3.54,0h0Z"/></g><path class="cls-1" d="M2.5,413.49c19.28,32.86,48.8,55.79,80.65,62.65,11.91,2.57,24.04,2.97,36.12,2.81,10.14-.13,20.4-.68,30.13-4.28,18.88-7,34.22-25.11,44.92-46.02,10.7-20.91,17.33-44.68,23.87-68.19"/><path class="cls-1" d="M292.24,413.58c8.2,29.57,21.39,58.43,42.67,76.63,20.04,17.14,45.91,23.3,70.46,20.03,24.55-3.27,68.3-31.9,68.3-31.9,0,0,41.85-42.52,45.4-73.56"/></svg>